<?xml version="1.0" encoding="utf-8"?>
<!-- Generator: Adobe Illustrator 18.1.1, SVG Export Plug-In . SVG Version: 6.00 Build 0)  -->
<!DOCTYPE svg PUBLIC "-//W3C//DTD SVG 1.1//EN" "http://www.w3.org/Graphics/SVG/1.1/DTD/svg11.dtd">
<svg version="1.1" id="Laag_1" xmlns="http://www.w3.org/2000/svg" xmlns:xlink="http://www.w3.org/1999/xlink" x="0px" y="0px"
	 viewBox="0 0 396.9 566.9" enable-background="new 0 0 396.9 566.9" xml:space="preserve">
<path stroke="#FFFFFF" stroke-miterlimit="10" d="M118.3,313v-2.1c0-6.6,0.9-12.9,2.7-19c1.7-6.1,4.6-12.5,8.4-19
	c3.3-5.6,6.9-11.1,10.9-16.4c4.1-5.2,8.1-10.4,12.3-15.6c4.8-5.8,9.1-10.9,12.5-15.4c3.4-4.4,6.6-8.6,8.9-12.5
	c2.3-3.9,4.2-7.9,5.4-11.7c1.1-3.9,1.9-8.2,1.9-13.2v-0.1c0-1.4,0-2.7-0.2-3.9c0-1.4-0.2-2.7-0.6-3.9c-0.4-2.3-1.1-4.8-2.1-7.3
	c-0.9-2.7-2.5-5-4.6-7.1c-4.8-5-11.5-7.7-20.2-7.7c-9.1,0-15.6,2.5-19.6,7.3c-1.9,2.1-3.3,4.6-4.1,7.7c-0.8,2.9-1.4,5.6-1.6,8.1
	c-0.2,2.5-0.2,5.6-0.2,9.2h-4.4c0-0.2,0-1.1-0.2-3.3s0-4.4,0.2-7.1c0.4-2.7,0.9-5.8,1.9-8.9c0.9-3.1,2.5-5.9,4.6-8.6
	c5-6.1,12.7-9.1,23.1-9.1c10.2,0,18.1,3.1,23.7,9.1c2.3,2.5,4.1,5.2,5.4,8.1c1.1,2.9,2.1,5.6,2.7,8.1c0.6,2.5,0.8,4.6,0.8,6.4
	s0,2.9,0,3.4c0,5.2-0.8,10.2-2.5,14.8s-3.9,9.2-6.7,13.6c-2.9,4.4-5.9,8.9-9.6,13.2c-3.6,4.4-7.3,9.1-10.9,13.6
	c-4.1,5-7.9,9.8-11.7,14.8c-3.9,5-7.3,10.2-10.4,15.4c-3.1,5.4-5.6,10.7-7.5,16.5c-1.9,5.8-3.1,11.7-3.3,17.9l59.6-0.4v5L118.3,313
	L118.3,313z"/>
<path d="M141.4,375.3l-17.9-21.7v20.4c0,0.6-0.4,0.9-0.8,0.9h-4.8c-0.4,0-0.8-0.4-0.8-0.9v-38.8l17.9,21.7v-20.4
	c0-0.6,0.4-0.9,0.8-0.9h4.8c0.4,0,0.8,0.4,0.8,0.9L141.4,375.3L141.4,375.3z"/>
<path d="M165.5,375.1c-10.9,0-19.8-8.9-19.8-19.8s8.9-20,19.8-20c10.9,0,19.8,8.9,19.8,19.8C185.3,366.1,176.5,375.1,165.5,375.1z
	 M165.5,342.6c-6.9,0-12.7,5.8-12.7,12.7s5.8,12.7,12.7,12.7c6.9,0,12.7-5.6,12.7-12.7C178.2,348.2,172.5,342.6,165.5,342.6z"/>
<path d="M217.1,373.8c0,0.2,0,0.2,0,0.4c0,0.6-0.4,0.9-0.9,0.9H210c-0.4,0-0.6-0.2-0.8-0.4v-0.2l-7.9-13.9l-0.9-1.7H197v15.4
	c0,0.6-0.4,0.9-0.9,0.9h-5.4c-0.6,0-0.9-0.4-0.9-0.9v-22.5h6.7l-6.1-10.7l0,0l-0.4-0.8v-3.6c0-0.4,0.4-0.9,0.9-0.9h13.4
	c4.2,0,7.9,1.1,10.4,3.4c2.5,2.1,4.1,5.2,4.1,8.2c0,4.8-3.4,9.8-10.2,11.4l0.2,0.4l0.9,1.7L217.1,373.8L217.1,373.8z M204.6,351.7
	c0.4,0,0.9,0,1.4,0c3.6-0.6,5.4-2.5,5.4-4.4c0-2.1-2.3-4.6-7.1-4.6h-4.6l4.1,7.3L204.6,351.7z"/>
<path d="M248.6,341.7c0,0.6-0.6,0.9-1.1,0.9h-8.9V374c0,0.6-0.4,1.1-0.9,1.1h-5.4c-0.4,0-0.9-0.6-0.9-1.1v-31.3h-9.1
	c-0.6,0-0.9-0.4-0.9-0.9v-5.4c0-0.6,0.4-0.9,0.9-0.9h25c0.6,0,1.1,0.4,1.1,0.9v5.4H248.6z"/>
<path d="M280.1,374.2c0,0.6-0.4,0.9-0.8,0.9H274c-0.4,0-0.8-0.4-0.8-0.9v-15.4h-12.5v15.4c0,0.6-0.4,0.9-0.8,0.9h-5.4
	c-0.6,0-0.9-0.4-0.9-0.9v-37.7c0-0.6,0.4-1.1,0.9-1.1h5.2c0.6,0,0.8,0.6,0.8,1.1v15.2H273v-15.2c0-0.6,0.4-1.1,0.8-1.1h5.4
	c0.4,0,0.8,0.6,0.8,1.1v37.7H280.1z"/>
<path d="M137.3,409.3c0,0.4-0.4,0.6-0.8,0.6h-0.9l1.6,5.8v0.2l0,0c0,0.4-0.2,0.8-0.6,0.8h-4.2c-0.2,0-0.6-0.2-0.6-0.6v-0.2l-1.6-6.1
	h-5.8l-1.6,6.4l0,0c0,0.2-0.4,0.6-0.6,0.6h-4.2c-0.4,0-0.6-0.4-0.6-0.8v-0.2l0,0l6.9-27.9v-0.2c0.2-0.2,0.4-0.4,0.6-0.4h4.4
	c0.2,0,0.6,0.2,0.6,0.4v0.2l4.2,16.9h2.5c0.4,0,0.8,0.2,0.8,0.6v4.1H137.3z M128.8,404.7l-1.6-6.4l-1.6,6.4H128.8z"/>
<path d="M161.7,416.8l-14.8-16.1v15.2c0,0.4-0.2,0.8-0.6,0.8h-4.1c-0.4,0-0.8-0.4-0.8-0.8v-29l14.8,16.1v-15.2
	c0-0.4,0.4-0.8,0.6-0.8h4.1c0.4,0,0.6,0.4,0.6,0.8v29H161.7z"/>
<path d="M182.3,391.9c0,0.4-0.4,0.8-0.8,0.8H175v23.5c0,0.4-0.4,0.8-0.6,0.8h-4.1c-0.4,0-0.6-0.4-0.6-0.8v-23.4H163
	c-0.4,0-0.8-0.4-0.8-0.8v-4.1c0-0.4,0.4-0.6,0.8-0.6h18.6c0.4,0,0.8,0.2,0.8,0.6v4.1H182.3z"/>
<path d="M208,416.8l-11.4-11.4l-11.4,11.4V388c0-0.4,0.4-0.8,0.6-0.8h4.1c0.4,0,0.6,0.4,0.6,0.8v16.1l5.9-5.9l5.9,5.9V388
	c0-0.4,0.4-0.8,0.8-0.8h4.1c0.4,0,0.6,0.4,0.6,0.8v28.8H208z"/>
<path d="M255.1,415.7c0,0.2,0,0.2,0,0.4c0,0.4-0.2,0.8-0.6,0.8h-4.6c-0.2,0-0.4-0.2-0.6-0.4v-0.2l-5.9-10.4l-0.8-1.4h-2.5v11.4
	c0,0.4-0.4,0.8-0.6,0.8h-4.1c-0.4,0-0.8-0.4-0.8-0.8v-16.7h5l-4.6-8.1l0,0l-0.4-0.6v-2.7c0-0.4,0.4-0.6,0.8-0.6h10
	c3.1,0,5.8,0.8,7.7,2.5c1.9,1.6,3.1,3.9,3.1,6.1c0,3.6-2.5,7.3-7.5,8.4l0.2,0.4l0.8,1.4L255.1,415.7L255.1,415.7z M245.9,399.4
	c0.4,0,0.8,0,0.9,0c2.7-0.4,4.1-1.9,4.1-3.3c0-1.6-1.7-3.4-5.4-3.4h-3.4l3.1,5.4L245.9,399.4z"/>
<path d="M281.6,395.9c0,2.3-1.1,4.6-3.1,6.4c-1.9,1.6-4.8,2.5-8.1,2.5h-4.8v11.3c0,0.4-0.2,0.8-0.6,0.8h-4.1c-0.4,0-0.8-0.4-0.8-0.8
	v-16.7h5.4l-5.4-8.6V388c0-0.4,0.4-0.8,0.8-0.8h9.4c3.3,0,5.9,0.8,8.1,2.5C280.7,391.3,281.6,393.6,281.6,395.9z M271.8,399.2
	c2.9-0.4,4.4-1.7,4.4-3.3c0-1.7-2.1-3.4-5.9-3.4h-2.5L271.8,399.2z"/>
<path d="M230.7,393H213V387h17.7V393z M213,398.6h14.6v5.9H213V398.6z M213,410.9h17.5v5.9H213V410.9L213,410.9z"/>
<path d="M262.4,269.3v-22.5H257l-0.2,22.5l-60.5-0.2l59.8-103.4l0,0c2.1-3.6,4.2-7.3,6.4-10.9l0,0h-6.6l-70,119.4h1.6h1.9h67.3v39
	h2.7h2.7v-39h17.7v-4.8H262.4z"/>
</svg>
