<?xml version="1.0" encoding="utf-8"?>
<!-- Generator: Adobe Illustrator 18.1.1, SVG Export Plug-In . SVG Version: 6.00 Build 0)  -->
<!DOCTYPE svg PUBLIC "-//W3C//DTD SVG 1.1//EN" "http://www.w3.org/Graphics/SVG/1.1/DTD/svg11.dtd">
<svg version="1.1" id="Laag_1" xmlns="http://www.w3.org/2000/svg" xmlns:xlink="http://www.w3.org/1999/xlink" x="0px" y="0px"
	 viewBox="0 0 841.9 595.3" enable-background="new 0 0 841.9 595.3" xml:space="preserve">
<path fill="#FFFFFF" stroke="#FFFFFF" stroke-miterlimit="10" d="M250.9,360.4v-4.5c0-13.9,2-27.3,5.7-40.4
	c3.7-13,9.8-26.5,17.9-40.4c6.9-11.8,14.7-23.6,23.2-34.7c8.6-11,17.1-22,26.1-33c10.2-12.2,19.2-23.2,26.5-32.6
	c7.3-9.4,13.9-18.3,18.8-26.5c4.9-8.2,9-16.7,11.4-24.9s4.1-17.5,4.1-28.1V95c0-2.9,0-5.7-0.4-8.2c0-2.9-0.4-5.7-1.2-8.2
	c-0.8-4.9-2.4-10.2-4.5-15.5c-2-5.7-5.3-10.6-9.8-15.1c-10.2-10.6-24.5-16.3-42.8-16.3c-19.2,0-33,5.3-41.6,15.5
	c-4.1,4.5-6.9,9.8-8.6,16.3c-1.6,6.1-2.9,11.8-3.3,17.1c-0.4,5.3-0.4,11.8-0.4,19.6h-9.4c0-0.4,0-2.4-0.4-6.9
	c-0.4-4.5,0-9.4,0.4-15.1c0.8-5.7,2-12.2,4.1-18.8c2-6.5,5.3-12.6,9.8-18.3c10.6-13,26.9-19.2,48.9-19.2c21.6,0,38.3,6.5,50.2,19.2
	c4.9,5.3,8.6,11,11.4,17.1c2.4,6.1,4.5,11.8,5.7,17.1s1.6,9.8,1.6,13.5s0,6.1,0,7.3c0,11-1.6,21.6-5.3,31.4s-8.2,19.6-14.3,28.9
	c-6.1,9.4-12.6,18.8-20.4,28.1c-7.7,9.4-15.5,19.2-23.2,28.9c-8.6,10.6-16.7,20.8-24.9,31.4c-8.2,10.6-15.5,21.6-22,32.6
	c-6.5,11.4-11.8,22.8-15.9,35.1c-4.1,12.2-6.5,24.9-6.9,37.9l126.4-0.8v10.6H250.9z"/>
<path fill="#FFFFFF" d="M299.9,492.5l-37.9-46.1v43.2c0,1.2-0.8,2-1.6,2h-10.2c-0.8,0-1.6-0.8-1.6-2v-82.4l37.9,46.1v-43.2
	c0-1.2,0.8-2,1.6-2h10.2c0.8,0,1.6,0.8,1.6,2V492.5z"/>
<path fill="#FFFFFF" d="M351.2,492.1c-23.2,0-42-18.8-42-42c0-23.2,18.8-42.4,42-42.4c23.2,0,42,18.8,42,42
	C393.2,473,374.5,492.1,351.2,492.1z M351.2,423.2c-14.7,0-26.9,12.2-26.9,26.9s12.2,26.9,26.9,26.9s26.9-11.8,26.9-26.9
	C378.1,435,365.9,423.2,351.2,423.2z"/>
<path fill="#FFFFFF" d="M460.5,489.3c0,0.4,0,0.4,0,0.8c0,1.2-0.8,2-2,2h-13c-0.8,0-1.2-0.4-1.6-0.8v-0.4l-16.7-29.4l-2-3.7h-7.3
	v32.6c0,1.2-0.8,2-2,2h-11.4c-1.2,0-2-0.8-2-2v-47.7h14.3l-13-22.8l0,0l-0.8-1.6v-7.7c0-0.8,0.8-2,2-2h28.5c9,0,16.7,2.4,22,7.3
	c5.3,4.5,8.6,11,8.6,17.5c0,10.2-7.3,20.8-21.6,24.1l0.4,0.8l2,3.7L460.5,489.3L460.5,489.3z M434,442.4c0.8,0,2,0,2.9,0
	c7.7-1.2,11.4-5.3,11.4-9.4c0-4.5-4.9-9.8-15.1-9.8h-9.8l8.6,15.5L434,442.4z"/>
<path fill="#FFFFFF" d="M527.4,421.2c0,1.2-1.2,2-2.4,2h-18.8v66.5c0,1.2-0.8,2.4-2,2.4h-11.4c-0.8,0-2-1.2-2-2.4v-66.5h-19.2
	c-1.2,0-2-0.8-2-2v-11.4c0-1.2,0.8-2,2-2h53c1.2,0,2.4,0.8,2.4,2v11.4H527.4z"/>
<path fill="#FFFFFF" d="M594.2,490.1c0,1.2-0.8,2-1.6,2h-11.4c-0.8,0-1.6-0.8-1.6-2v-32.6H553v32.6c0,1.2-0.8,2-1.6,2H540
	c-1.2,0-2-0.8-2-2v-79.9c0-1.2,0.8-2.4,2-2.4h11c1.2,0,1.6,1.2,1.6,2.4v32.2h26.5v-32.2c0-1.2,0.8-2.4,1.6-2.4h11.4
	c0.8,0,1.6,1.2,1.6,2.4v79.9H594.2z"/>
<path fill="#FFFFFF" d="M291.3,564.7c0,0.8-0.8,1.2-1.6,1.2h-2l3.3,12.2v0.4l0,0c0,0.8-0.4,1.6-1.2,1.6h-9c-0.4,0-1.2-0.4-1.2-1.2
	v-0.4l-3.3-13H264l-3.3,13.5l0,0c0,0.4-0.8,1.2-1.2,1.2h-9c-0.8,0-1.2-0.8-1.2-1.6v-0.4l0,0L264,519v-0.4c0.4-0.4,0.8-0.8,1.2-0.8
	h9.4c0.4,0,1.2,0.4,1.2,0.8v0.4l9,35.9h5.3c0.8,0,1.6,0.4,1.6,1.2v8.6H291.3z M273.3,554.9l-3.3-13.5l-3.3,13.5H273.3z"/>
<path fill="#FFFFFF" d="M343.1,580.6l-31.4-34.2v32.2c0,0.8-0.4,1.6-1.2,1.6h-8.6c-0.8,0-1.6-0.8-1.6-1.6V517l31.4,34.2V519
	c0-0.8,0.8-1.6,1.2-1.6h8.6c0.8,0,1.2,0.8,1.2,1.6v61.6H343.1z"/>
<path fill="#FFFFFF" d="M386.7,527.6c0,0.8-0.8,1.6-1.6,1.6h-13.9V579c0,0.8-0.8,1.6-1.2,1.6h-8.6c-0.8,0-1.2-0.8-1.2-1.6v-49.7
	h-14.3c-0.8,0-1.6-0.8-1.6-1.6V519c0-0.8,0.8-1.2,1.6-1.2h39.5c0.8,0,1.6,0.4,1.6,1.2v8.6H386.7z"/>
<path fill="#FFFFFF" d="M441.3,580.6l-24.1-24.1l-24.1,24.1v-61.2c0-0.8,0.8-1.6,1.2-1.6h8.6c0.8,0,1.2,0.8,1.2,1.6v34.2l12.6-12.6
	l12.6,12.6v-34.2c0-0.8,0.8-1.6,1.6-1.6h8.6c0.8,0,1.2,0.8,1.2,1.6v61.2H441.3z"/>
<path fill="#FFFFFF" d="M541.2,578.2c0,0.4,0,0.4,0,0.8c0,0.8-0.4,1.6-1.2,1.6h-9.8c-0.4,0-0.8-0.4-1.2-0.8v-0.4l-12.6-22l-1.6-2.9
	h-5.3v24.1c0,0.8-0.8,1.6-1.2,1.6h-8.6c-0.8,0-1.6-0.8-1.6-1.6v-35.5h10.6l-9.8-17.1l0,0l-0.8-1.2V519c0-0.8,0.8-1.2,1.6-1.2h21.2
	c6.5,0,12.2,1.6,16.3,5.3c4.1,3.3,6.5,8.2,6.5,13c0,7.7-5.3,15.5-15.9,17.9l0.4,0.8l1.6,2.9L541.2,578.2L541.2,578.2z M521.7,543.5
	c0.8,0,1.6,0,2,0c5.7-0.8,8.6-4.1,8.6-6.9c0-3.3-3.7-7.3-11.4-7.3h-7.3l6.5,11.4L521.7,543.5z"/>
<path fill="#FFFFFF" d="M597.5,536.2c0,4.9-2.4,9.8-6.5,13.5c-4.1,3.3-10.2,5.3-17.1,5.3h-10.2V579c0,0.8-0.4,1.6-1.2,1.6h-8.6
	c-0.8,0-1.6-0.8-1.6-1.6v-35.5h11.4l-11.4-18.3v-5.7c0-0.8,0.8-1.6,1.6-1.6h20c6.9,0,12.6,1.6,17.1,5.3
	C595.5,526.4,597.5,531.3,597.5,536.2z M576.7,543.1c6.1-0.8,9.4-3.7,9.4-6.9c0-3.7-4.5-7.3-12.6-7.3h-5.3L576.7,543.1z"/>
<path fill="#FFFFFF" d="M489.4,530h-37.5v-12.6h37.5V530z M451.9,541.9h31v12.6h-31V541.9z M451.9,568H489v12.6h-37.1L451.9,568
	L451.9,568z"/>
<path fill="#FFFFFF" d="M556.7,267.5v-47.7h-11.4l-0.4,47.7l-128.4-0.4L543.3,47.7l0,0c4.5-7.7,9-15.5,13.5-23.2l0,0h-13.9
	L394.4,277.7h3.3h4.1h142.7v82.8h5.7h5.7v-82.8h37.5v-10.2H556.7z"/>
</svg>
